# xmcd
#
# Track frame offsets:
#	150
#	22385
#	43050
#	62367
#	84607
#	105267
#
# Disc length: 1658 seconds
#
# Revision: 1
# Processed by: cddbd v1.5PL3 Copyright (c) Steve Scherf et al.
# Submitted via: CDex 1.50Beta5
#
DISCID=45067806
DTITLE=Every Little Thing - ささやかな祈り
DYEAR=2002
DGENRE=JPop
TTITLE0=ささやかな祈り
TTITLE1=AMBIVALENCE
TTITLE2=デージー
TTITLE3=ささやかな祈り(Instrumental)
TTITLE4=AMBIVALENCE(Instrumental)
TTITLE5=デージー(Instrumental)
EXTD=
EXTT0=
EXTT1=
EXTT2=
EXTT3=
EXTT4=
EXTT5=
PLAYORDER=
